<svg width="50" height="50" viewBox="0 0 50 50" fill="none" xmlns="http://www.w3.org/2000/svg">
<path d="M0 18.1818C0 8.14028 8.14028 0 18.1818 0H31.8182C41.8597 0 50 8.14028 50 18.1818V31.8182C50 41.8597 41.8597 50 31.8182 50H18.1818C8.14028 50 0 41.8597 0 31.8182V18.1818Z" fill="#F7F7F7"/>
<path d="M19.5236 44.2857C21.4522 44.2857 23.0156 42.7 23.0156 40.7439V34.6263C23.0156 34.6263 23.0156 33.3383 24.2854 33.3383V5.00398C24.2854 5.00398 19.411 4.68198 17.6186 9.83369C15.8262 14.9854 20.1582 17.8832 20.1582 17.8832H14.8412C14.4467 17.8832 14.1269 17.5634 14.1269 17.169V15.1261C14.1269 15.1261 14.2063 11.4286 10.714 11.4286C7.22172 11.4286 7.14286 15.1261 7.14286 15.1261V19.0102C7.14286 19.0102 7.08262 21.9249 8.72986 23.3569C10.3771 24.789 13.1742 24.6448 13.1742 24.6448H14.1269C14.1269 24.6448 12.2282 28.2114 12.857 30.4405C13.3898 32.3289 16.0316 34.3043 16.0316 34.3043V40.7439C16.0316 42.7 17.595 44.2857 19.5236 44.2857Z" fill="#FF6B16"/>
<path d="M30.0006 44.2857C28.072 44.2857 26.9847 42.7 26.9847 40.7439V34.6263C26.9847 34.6263 26.9847 33.3383 25.7149 33.3383V5.00398C25.7149 5.00398 30.5893 4.68198 32.3817 9.83369C34.1741 14.9854 29.8421 17.8832 29.8421 17.8832H35.1592C35.5537 17.8832 35.8735 17.5634 35.8735 17.169V15.1261C35.8735 15.1261 35.437 11.4286 38.9293 11.4286C42.4216 11.4286 42.1432 15.1261 42.1432 15.1261V18.2959C42.1432 18.2959 42.2034 21.2106 40.5562 22.6426C38.9089 24.0747 37.5006 23.9306 37.5006 23.9306H35.1592H34.5893C33.8521 23.9306 33.2544 24.5282 33.2544 25.2654V34.3043V40.7439C33.2544 42.7 31.9292 44.2857 30.0006 44.2857Z" fill="#2471FF"/>
</svg>
