<svg width="122" height="90" viewBox="0 0 122 90" fill="none" xmlns="http://www.w3.org/2000/svg">
<g clip-path="url(#clip0_1257_109415)">
<rect y="26" width="122" height="64" rx="30" fill="#FFDCC2"/>
<path d="M49.2002 101C54.0602 101 58 97.004 58 92.0747V76.6582C58 76.6582 58 73.4126 61.2 73.4126V2.01002C61.2 2.01002 48.9165 1.1986 44.3996 14.1809C39.8827 27.1632 50.7995 34.4658 50.7995 34.4658H37.4294C36.4193 34.4658 35.6004 33.6469 35.6004 32.6367V27.5176C35.6004 27.5176 35.8006 18.2 27 18.2C18.1994 18.2 18.0007 27.5176 18.0007 27.5176V37.3056C18.0007 37.3056 17.8489 44.6506 21.9999 48.2594C26.151 51.8682 33.1998 51.505 33.1998 51.505H35.6004C35.6004 51.505 30.8158 60.4927 32.4005 66.1101C33.7429 70.8688 40.4003 75.8468 40.4003 75.8468V92.0747C40.4003 97.004 44.3402 101 49.2002 101Z" fill="#FF6B16"/>
<path d="M71.9109 101C67.0509 101 64.3108 97.004 64.3108 92.0747V76.6582C64.3108 76.6582 64.3108 73.4126 61.1109 73.4126V2.01002C61.1109 2.01002 73.3944 1.1986 77.9113 14.1809C82.4282 27.1632 71.5114 34.4658 71.5114 34.4658H84.8814C85.8916 34.4658 86.7105 33.6469 86.7105 32.6367V27.5176C86.7105 27.5176 85.6106 18.2 94.4111 18.2C103.212 18.2 102.51 27.5176 102.51 27.5176V35.5056C102.51 35.5056 102.662 42.8506 98.5109 46.4594C94.3599 50.0682 90.8109 49.705 90.8109 49.705H84.9105H83.5286C81.6409 49.705 80.1106 51.2353 80.1106 53.123V75.8468V92.0747C80.1106 97.004 76.7709 101 71.9109 101Z" fill="#2471FF"/>
</g>
<defs>
<clipPath id="clip0_1257_109415">
<rect width="122" height="90" fill="white"/>
</clipPath>
</defs>
</svg>
