<svg width="18" height="18" viewBox="0 0 18 18" fill="none" xmlns="http://www.w3.org/2000/svg">
<path d="M11.5622 7.40672L8.18719 5.15672C8.10246 5.10019 8.00396 5.06772 7.90222 5.06279C7.80048 5.05786 7.69931 5.08065 7.60951 5.12873C7.51971 5.17681 7.44465 5.24837 7.39234 5.33577C7.34003 5.42317 7.31243 5.52314 7.3125 5.625V10.125C7.31243 10.2269 7.34003 10.3268 7.39234 10.4142C7.44465 10.5016 7.51971 10.5732 7.60951 10.6213C7.69931 10.6693 7.80048 10.6921 7.90222 10.6872C8.00396 10.6823 8.10246 10.6498 8.18719 10.5933L11.5622 8.34328C11.6393 8.29193 11.7026 8.22232 11.7464 8.14062C11.7901 8.05893 11.813 7.96768 11.813 7.875C11.813 7.78232 11.7901 7.69107 11.7464 7.60938C11.7026 7.52768 11.6393 7.45807 11.5622 7.40672ZM8.4375 9.07383V6.67969L10.2361 7.875L8.4375 9.07383ZM15.1875 2.8125H2.8125C2.51413 2.8125 2.22798 2.93103 2.017 3.142C1.80603 3.35298 1.6875 3.63913 1.6875 3.9375V11.8125C1.6875 12.1109 1.80603 12.397 2.017 12.608C2.22798 12.819 2.51413 12.9375 2.8125 12.9375H15.1875C15.4859 12.9375 15.772 12.819 15.983 12.608C16.194 12.397 16.3125 12.1109 16.3125 11.8125V3.9375C16.3125 3.63913 16.194 3.35298 15.983 3.142C15.772 2.93103 15.4859 2.8125 15.1875 2.8125ZM15.1875 11.8125H2.8125V3.9375H15.1875V11.8125ZM16.3125 14.625C16.3125 14.7742 16.2532 14.9173 16.1477 15.0227C16.0423 15.1282 15.8992 15.1875 15.75 15.1875H2.25C2.10082 15.1875 1.95774 15.1282 1.85225 15.0227C1.74676 14.9173 1.6875 14.7742 1.6875 14.625C1.6875 14.4758 1.74676 14.3327 1.85225 14.2273C1.95774 14.1218 2.10082 14.0625 2.25 14.0625H15.75C15.8992 14.0625 16.0423 14.1218 16.1477 14.2273C16.2532 14.3327 16.3125 14.4758 16.3125 14.625Z" fill="#67A9FF"/>
</svg>
