<svg width="45" height="45" viewBox="0 0 45 45" fill="none" xmlns="http://www.w3.org/2000/svg">
<path d="M12.1299 40.9907C9.33333 40.9907 7.11255 39.9149 5.46753 37.7631C3.82251 35.6114 3 32.3424 3 27.9562C3 22.9907 3.69913 18.77 5.0974 15.2942C6.57792 11.8183 8.51082 9.25279 10.8961 7.59762C13.3636 5.85969 16.0779 4.99072 19.039 4.99072H19.6558V17.4045H17.8052C14.7619 17.4045 12.3355 18.2735 10.526 20.0114C8.7987 21.6666 7.93506 23.9011 7.93506 26.7149H8.55195C8.7987 26.2183 9.29221 25.8045 10.0325 25.4735C10.855 25.0597 11.7597 24.8528 12.7468 24.8528C14.8853 24.8528 16.6537 25.5976 18.0519 27.0873C19.5325 28.4942 20.2727 30.3562 20.2727 32.6735C20.2727 35.1562 19.4913 37.1838 17.9286 38.7562C16.4481 40.2459 14.5152 40.9907 12.1299 40.9907ZM32.8571 40.9907C30.0606 40.9907 27.8398 39.9149 26.1948 37.7631C24.5498 35.6114 23.7273 32.3424 23.7273 27.9562C23.7273 22.9907 24.4264 18.77 25.8247 15.2942C27.3052 11.8183 29.2381 9.25279 31.6234 7.59762C34.0909 5.85969 36.8052 4.99072 39.7662 4.99072H40.3831V17.4045H38.5325C35.4892 17.4045 33.0628 18.2735 31.2532 20.0114C29.526 21.6666 28.6623 23.9011 28.6623 26.7149H29.2792C29.526 26.2183 30.0195 25.8045 30.7597 25.4735C31.5823 25.0597 32.487 24.8528 33.474 24.8528C35.6126 24.8528 37.381 25.5976 38.7792 27.0873C40.2597 28.4942 41 30.3562 41 32.6735C41 35.1562 40.2186 37.1838 38.6558 38.7562C37.1753 40.2459 35.2424 40.9907 32.8571 40.9907Z" fill="#BFDBFE"/>
</svg>
