<svg width="24" height="24" viewBox="0 0 24 24" fill="none" xmlns="http://www.w3.org/2000/svg">
<path d="M6.15068 8.95909C6.3082 8.57582 6.77523 8.42999 7.12285 8.65554L8.24092 9.38099C9.14206 9.96568 10.3279 9.84893 11.0977 9.09971V9.09971C11.6599 8.55251 11.9045 7.75651 11.7466 6.98801L11.2844 4.73906C11.1424 4.04763 11.9169 3.53686 12.4965 3.93978L15.9708 6.35505C17.6943 7.55322 18.8912 9.36818 19.3137 11.4243V11.4243C19.6113 12.8726 19.6113 14.3662 19.3137 15.8145L19.2269 16.2367C18.8737 17.9554 17.6243 19.3518 15.9554 19.8933L15.508 20.0384C13.2279 20.7781 10.7722 20.7781 8.4921 20.0384L7.90303 19.8473C6.32164 19.3343 5.13784 18.0112 4.80319 16.3826V16.3826C4.43306 14.5815 4.60873 12.7109 5.30772 11.0101L6.15068 8.95909Z" stroke="white" stroke-width="1.5" stroke-linejoin="round"/>
</svg>
