<svg width="24" height="24" viewBox="0 0 24 24" fill="none" xmlns="http://www.w3.org/2000/svg">
<path d="M4 10.22C4 10.1704 4 10.1456 4.0004 10.1217C4.01252 9.40607 4.29599 8.72171 4.79348 8.20709C4.81009 8.18991 4.82761 8.17239 4.86264 8.13735V8.13735C4.95057 8.04942 4.99454 8.00546 5.03848 7.96228C6.34298 6.68035 7.88415 5.66411 9.5763 4.97006C9.6333 4.94668 9.69103 4.92359 9.80649 4.87741L10.5978 4.5609C10.9458 4.42169 11.1198 4.35209 11.2954 4.30682C11.7576 4.18773 12.2424 4.18773 12.7046 4.30682C12.8802 4.35209 13.0542 4.42169 13.4022 4.5609L14.1935 4.87741C14.309 4.92359 14.3667 4.94668 14.4237 4.97006C16.1159 5.66411 17.657 6.68035 18.9615 7.96228C19.0055 8.00546 19.0494 8.04942 19.1374 8.13735V8.13735C19.1724 8.17239 19.1899 8.18991 19.2065 8.20709C19.704 8.72171 19.9875 9.40607 19.9996 10.1217C20 10.1456 20 10.1704 20 10.22V17.0131C20 17.4779 20 17.7103 19.971 17.9111C19.8105 19.0225 19.0066 19.9332 17.9236 20.2303C17.728 20.284 17.4974 20.3128 17.0361 20.3705V20.3705C16.204 20.4745 15.7879 20.5265 15.3722 20.5681C13.1296 20.7924 10.8704 20.7924 8.62785 20.5681C8.21206 20.5265 7.79599 20.4745 6.96387 20.3705V20.3705C6.50264 20.3128 6.27202 20.284 6.0764 20.2303C4.99345 19.9332 4.18953 19.0225 4.029 17.9111C4 17.7103 4 17.4779 4 17.0131V10.22Z" stroke="#111214" stroke-width="1.5" stroke-linejoin="round"/>
<path d="M9 21V16.3246C9 16.0309 9 15.8841 9.02499 15.7531C9.10311 15.3434 9.35839 14.9892 9.72235 14.7856C9.83877 14.7204 9.97804 14.674 10.2566 14.5811V14.5811C10.6561 14.448 10.8559 14.3814 11.0564 14.3355C11.6775 14.1936 12.3225 14.1936 12.9436 14.3355C13.1441 14.3814 13.3439 14.448 13.7434 14.5811V14.5811C14.022 14.674 14.1612 14.7204 14.2777 14.7856C14.6416 14.9892 14.8969 15.3434 14.975 15.7531C15 15.8841 15 16.0309 15 16.3246V21" stroke="#111214" stroke-width="1.5" stroke-linejoin="round"/>
</svg>
