<svg width="34" height="34" viewBox="0 0 34 34" fill="none" xmlns="http://www.w3.org/2000/svg">
<path d="M5.6665 14.4782C5.6665 14.408 5.6665 14.373 5.66708 14.3391C5.68424 13.3252 6.08583 12.3557 6.7906 11.6267C6.81414 11.6023 6.83895 11.5775 6.88858 11.5279C7.01315 11.4033 7.07543 11.341 7.13768 11.2799C8.98573 9.46379 11.1691 8.02411 13.5663 7.04088C13.647 7.00776 13.7288 6.97504 13.8924 6.90962L15.0133 6.46123C15.5064 6.26402 15.7529 6.16541 16.0017 6.10129C16.6564 5.93258 17.3432 5.93258 17.998 6.10129C18.2468 6.16541 18.4933 6.26402 18.9863 6.46123L20.1073 6.90962C20.2709 6.97504 20.3527 7.00776 20.4334 7.04088C22.8306 8.02411 25.0139 9.46379 26.862 11.2799C26.9242 11.341 26.9865 11.4033 27.1111 11.5279C27.1607 11.5775 27.1855 11.6023 27.2091 11.6267C27.9139 12.3557 28.3154 13.3252 28.3326 14.3391C28.3332 14.373 28.3332 14.408 28.3332 14.4782V24.1018C28.3332 24.7603 28.3332 25.0895 28.2921 25.374C28.0647 26.9485 26.9258 28.2386 25.3916 28.6596C25.1145 28.7356 24.7878 28.7765 24.1344 28.8581C22.9555 29.0055 22.3661 29.0792 21.7771 29.1381C18.6002 29.4558 15.3995 29.4558 12.2226 29.1381C11.6336 29.0792 11.0442 29.0055 9.86532 28.8581C9.21191 28.7765 8.8852 28.7356 8.60807 28.6596C7.07389 28.2386 5.93501 26.9485 5.70759 25.374C5.6665 25.0895 5.6665 24.7603 5.6665 24.1018V14.4782Z" stroke="black" stroke-width="2" stroke-linejoin="round"/>
<path d="M12.75 29.75V23.1265C12.75 22.7105 12.75 22.5026 12.7854 22.3169C12.8961 21.7365 13.2577 21.2348 13.7733 20.9462C13.9383 20.854 14.1356 20.7882 14.5302 20.6567C15.0961 20.468 15.3791 20.3737 15.6633 20.3087C16.5431 20.1077 17.4569 20.1077 18.3367 20.3087C18.6209 20.3737 18.9039 20.468 19.4698 20.6567C19.8644 20.7882 20.0617 20.854 20.2267 20.9462C20.7423 21.2348 21.1039 21.7365 21.2146 22.3169C21.25 22.5026 21.25 22.7105 21.25 23.1265V29.75" stroke="black" stroke-width="2" stroke-linejoin="round"/>
</svg>
