<svg width="108" height="101" viewBox="0 0 108 101" fill="none" xmlns="http://www.w3.org/2000/svg">
<g filter="url(#filter0_dd_460_124018)">
<path d="M16 27C16 13.7452 26.7452 3 40 3H68C81.2548 3 92 13.7452 92 27V55C92 68.2548 81.2548 79 68 79H40C26.7452 79 16 68.2548 16 55V27Z" fill="#FF6B16"/>
<path d="M30.3154 69L31.6684 66.613C31.8444 66.2977 32.0461 66.0667 32.2734 65.92C32.5081 65.7733 32.7794 65.7 33.0874 65.7H33.4614L33.4504 65.865C32.5777 65.865 31.8994 65.6633 31.4154 65.26C30.9387 64.8493 30.7004 64.281 30.7004 63.555C30.7004 62.8217 30.9351 62.2533 31.4044 61.85C31.8811 61.4467 32.5557 61.245 33.4284 61.245H36.8934V69H35.4854V65.898H34.4514C34.1581 65.898 33.9197 65.942 33.7364 66.03C33.5531 66.118 33.3917 66.2867 33.2524 66.536L31.8664 69H30.3154ZM33.6594 64.864H35.4854V62.345H33.6594C32.5961 62.345 32.0644 62.763 32.0644 63.599C32.0644 64.4423 32.5961 64.864 33.6594 64.864ZM41.3208 69V63.445H44.2798C44.9765 63.445 45.4862 63.5733 45.8088 63.83C46.1315 64.0793 46.2928 64.435 46.2928 64.897C46.2928 65.249 46.1755 65.5423 45.9408 65.777C45.7062 66.0117 45.3945 66.1583 45.0058 66.217V66.063C45.4825 66.0923 45.8492 66.2317 46.1058 66.481C46.3625 66.7303 46.4908 67.053 46.4908 67.449C46.4908 67.9257 46.3075 68.3033 45.9408 68.582C45.5742 68.8607 45.0535 69 44.3788 69H41.3208ZM42.5968 68.153H44.2358C44.5585 68.153 44.8042 68.087 44.9728 67.955C45.1488 67.823 45.2368 67.6287 45.2368 67.372C45.2368 67.1153 45.1488 66.921 44.9728 66.789C44.8042 66.657 44.5585 66.591 44.2358 66.591H42.5968V68.153ZM42.5968 65.744H44.1148C44.4082 65.744 44.6355 65.6817 44.7968 65.557C44.9582 65.425 45.0388 65.2417 45.0388 65.007C45.0388 64.7723 44.9582 64.5927 44.7968 64.468C44.6355 64.3433 44.4082 64.281 44.1148 64.281H42.5968V65.744ZM49.9945 70.43V67.955H50.6325C50.8525 67.6103 51.0102 67.207 51.1055 66.745C51.2082 66.2757 51.2595 65.7037 51.2595 65.029V63.445H55.5385V67.955H56.4405V70.43H55.2745V69H51.1605V70.43H49.9945ZM51.8645 67.966H54.2515V64.479H52.4255V65.337C52.4255 65.8283 52.3778 66.3087 52.2825 66.778C52.1872 67.2473 52.0478 67.6433 51.8645 67.966ZM60.0684 69.11C59.1371 69.11 58.4074 68.8533 57.8794 68.34C57.3514 67.8267 57.0874 67.1227 57.0874 66.228C57.0874 65.6487 57.2011 65.1427 57.4284 64.71C57.6558 64.2773 57.9711 63.94 58.3744 63.698C58.7851 63.456 59.2618 63.335 59.8044 63.335C60.3398 63.335 60.7871 63.4487 61.1464 63.676C61.5058 63.9033 61.7771 64.2223 61.9604 64.633C62.1511 65.0437 62.2464 65.524 62.2464 66.074V66.437H58.1984V65.711H61.2674L61.0804 65.865C61.0804 65.3517 60.9704 64.9593 60.7504 64.688C60.5378 64.4167 60.2261 64.281 59.8154 64.281C59.3608 64.281 59.0088 64.4423 58.7594 64.765C58.5174 65.0877 58.3964 65.5387 58.3964 66.118V66.261C58.3964 66.8623 58.5431 67.3133 58.8364 67.614C59.1371 67.9073 59.5588 68.054 60.1014 68.054C60.4168 68.054 60.7101 68.0137 60.9814 67.933C61.2601 67.845 61.5241 67.7057 61.7734 67.515L62.1804 68.439C61.9164 68.6517 61.6011 68.8167 61.2344 68.934C60.8678 69.0513 60.4791 69.11 60.0684 69.11ZM63.2642 69.154L62.8352 68.076C63.0772 67.988 63.2789 67.8743 63.4402 67.735C63.6089 67.5883 63.7409 67.405 63.8362 67.185C63.9389 66.9577 64.0122 66.679 64.0562 66.349C64.1002 66.0117 64.1222 65.612 64.1222 65.15V63.445H68.5442V69H67.1802V64.501H65.3762V65.194C65.3762 65.9933 65.3029 66.6643 65.1562 67.207C65.0095 67.7423 64.7822 68.1677 64.4742 68.483C64.1662 68.7983 63.7629 69.022 63.2642 69.154ZM72.7283 69.11C71.797 69.11 71.0673 68.8533 70.5393 68.34C70.0113 67.8267 69.7473 67.1227 69.7473 66.228C69.7473 65.6487 69.861 65.1427 70.0883 64.71C70.3156 64.2773 70.631 63.94 71.0343 63.698C71.445 63.456 71.9216 63.335 72.4643 63.335C72.9996 63.335 73.447 63.4487 73.8063 63.676C74.1656 63.9033 74.437 64.2223 74.6203 64.633C74.811 65.0437 74.9063 65.524 74.9063 66.074V66.437H70.8583V65.711H73.9273L73.7403 65.865C73.7403 65.3517 73.6303 64.9593 73.4103 64.688C73.1976 64.4167 72.886 64.281 72.4753 64.281C72.0206 64.281 71.6686 64.4423 71.4193 64.765C71.1773 65.0877 71.0563 65.5387 71.0563 66.118V66.261C71.0563 66.8623 71.203 67.3133 71.4963 67.614C71.797 67.9073 72.2186 68.054 72.7613 68.054C73.0766 68.054 73.37 68.0137 73.6413 67.933C73.92 67.845 74.184 67.7057 74.4333 67.515L74.8403 68.439C74.5763 68.6517 74.261 68.8167 73.8943 68.934C73.5276 69.0513 73.139 69.11 72.7283 69.11ZM76.2321 66.701L75.8031 61.245H77.4971L77.0681 66.701H76.2321ZM75.8801 69V67.471H77.4201V69H75.8801Z" fill="white"/>
<path d="M42.2887 28.1716C42.5906 27.437 43.4858 27.1575 44.152 27.5898L46.295 28.9802C48.0222 30.1009 50.295 29.8771 51.7705 28.4411C52.8481 27.3923 53.3169 25.8666 53.0142 24.3937L52.1284 20.0832C51.8561 18.7579 53.3407 17.7789 54.4515 18.5512L61.1106 23.1805C64.414 25.477 66.708 28.9557 67.5178 32.8965C68.0882 35.6724 68.0882 38.5352 67.5178 41.311L67.3515 42.1203C66.6746 45.4145 64.2799 48.091 61.081 49.1288L60.2236 49.4069C55.8533 50.8248 51.1467 50.8248 46.7765 49.4069L45.6474 49.0407C42.6164 48.0573 40.3474 45.5213 39.706 42.4001C38.9966 38.9479 39.3333 35.3625 40.673 32.1027L42.2887 28.1716Z" stroke="white" stroke-width="2.2" stroke-linejoin="round"/>
</g>
<defs>
<filter id="filter0_dd_460_124018" x="0" y="0" width="108" height="108" filterUnits="userSpaceOnUse" color-interpolation-filters="sRGB">
<feFlood flood-opacity="0" result="BackgroundImageFix"/>
<feColorMatrix in="SourceAlpha" type="matrix" values="0 0 0 0 0 0 0 0 0 0 0 0 0 0 0 0 0 0 127 0" result="hardAlpha"/>
<feMorphology radius="3" operator="erode" in="SourceAlpha" result="effect1_dropShadow_460_124018"/>
<feOffset dy="13"/>
<feGaussianBlur stdDeviation="9.5"/>
<feComposite in2="hardAlpha" operator="out"/>
<feColorMatrix type="matrix" values="0 0 0 0 0.914926 0 0 0 0 0.517379 0 0 0 0 0.28722 0 0 0 0.25 0"/>
<feBlend mode="normal" in2="BackgroundImageFix" result="effect1_dropShadow_460_124018"/>
<feColorMatrix in="SourceAlpha" type="matrix" values="0 0 0 0 0 0 0 0 0 0 0 0 0 0 0 0 0 0 127 0" result="hardAlpha"/>
<feMorphology radius="14" operator="erode" in="SourceAlpha" result="effect2_dropShadow_460_124018"/>
<feOffset dy="15"/>
<feGaussianBlur stdDeviation="4"/>
<feComposite in2="hardAlpha" operator="out"/>
<feColorMatrix type="matrix" values="0 0 0 0 0.802603 0 0 0 0 0.294288 0 0 0 0 0 0 0 0 0.31 0"/>
<feBlend mode="normal" in2="effect1_dropShadow_460_124018" result="effect2_dropShadow_460_124018"/>
<feBlend mode="normal" in="SourceGraphic" in2="effect2_dropShadow_460_124018" result="shape"/>
</filter>
</defs>
</svg>
