<svg width="34" height="34" viewBox="0 0 34 34" fill="none" xmlns="http://www.w3.org/2000/svg">
<path d="M4.5 4.5L7.03539 7.03539M29.5 29.5L27.3277 27.3277M13.5 13.5L17 17L20.705 20.705" stroke="black" stroke-width="2" stroke-linecap="round"/>
<path d="M22.6911 29.8061C22.9723 29.8998 23.281 29.8585 23.5277 29.694L23.6791 29.5931C24.009 29.3731 24.1739 29.2632 24.3352 29.1509C26.2129 27.8432 27.8435 26.2125 29.1512 24.3348C29.2635 24.1736 29.3735 24.0087 29.5934 23.6788L29.6944 23.5273C29.8588 23.2807 29.9002 22.9719 29.8064 22.6907C29.0415 20.396 27.2408 18.5953 24.9461 17.8304C24.6649 17.7367 24.3561 17.778 24.1095 17.9424L23.958 18.0434C23.6282 18.2633 23.4632 18.3733 23.302 18.4856C21.4243 19.7933 19.7936 21.4239 18.4859 23.3016C18.3736 23.4629 18.2637 23.6278 18.0438 23.9577L17.9428 24.1092C17.7784 24.3558 17.737 24.6645 17.8308 24.9458C18.5957 27.2405 20.3963 29.0412 22.6911 29.8061Z" stroke="black" stroke-width="2" stroke-linejoin="round"/>
<path d="M8.69621 16.0503C9.20339 16.2194 9.76022 16.1448 10.205 15.8483L10.4578 15.6798C12.5261 14.3009 14.3009 12.5261 15.6798 10.4578L15.8483 10.2051C16.1448 9.76024 16.2194 9.20342 16.0503 8.69623C15.3606 6.62696 13.7368 5.00319 11.6675 4.31343C11.1603 4.14437 10.6035 4.21894 10.1587 4.5155L9.90594 4.68399C7.83763 6.06286 6.06284 7.83765 4.68396 9.90597L4.51547 10.1587C4.21892 10.6035 4.14435 11.1604 4.31341 11.6675C5.00317 13.7368 6.62693 15.3606 8.69621 16.0503Z" stroke="black" stroke-width="2" stroke-linejoin="round"/>
</svg>
