<svg width="24" height="24" viewBox="0 0 24 24" fill="none" xmlns="http://www.w3.org/2000/svg">
<path d="M3.17627 3.17651L4.96596 4.9662M20.8233 20.8236L19.2899 19.2902M9.52921 9.52945L11.9998 12L14.6151 14.6154" stroke="#111214" stroke-width="1.5" stroke-linecap="round"/>
<path d="M16.0171 21.0396C16.2156 21.1058 16.4336 21.0766 16.6077 20.9605L16.7146 20.8892C16.9474 20.734 17.0639 20.6564 17.1777 20.5771C18.5031 19.654 19.6542 18.503 20.5773 17.1775C20.6565 17.0637 20.7341 16.9473 20.8894 16.7144L20.9606 16.6075C21.0767 16.4334 21.1059 16.2155 21.0397 16.017V16.017C20.4998 14.3972 19.2287 13.1261 17.6089 12.5862V12.5862C17.4104 12.52 17.1925 12.5492 17.0184 12.6653L16.9115 12.7365C16.6786 12.8918 16.5622 12.9694 16.4484 13.0487C15.1229 13.9717 13.9719 15.1228 13.0488 16.4482C12.9695 16.562 12.8919 16.6785 12.7367 16.9113L12.6654 17.0182C12.5493 17.1923 12.5202 17.4103 12.5863 17.6088V17.6088C13.1263 19.2286 14.3973 20.4996 16.0171 21.0396V21.0396Z" stroke="#111214" stroke-width="1.5" stroke-linejoin="round"/>
<path d="M6.13836 11.3297C6.49637 11.449 6.88942 11.3964 7.20342 11.187L7.38182 11.0681C8.84181 10.0948 10.0946 8.84199 11.0679 7.38201L11.1869 7.20361C11.3962 6.88961 11.4488 6.49655 11.3295 6.13854V6.13854C10.8426 4.67787 9.69642 3.53169 8.23575 3.0448V3.0448C7.87774 2.92546 7.48468 2.9781 7.17069 3.18743L6.99229 3.30637C5.5323 4.27969 4.27951 5.53249 3.30618 6.99247L3.18725 7.17087C2.97792 7.48487 2.92528 7.87792 3.04462 8.23594V8.23594C3.53151 9.6966 4.67769 10.8428 6.13836 11.3297V11.3297Z" stroke="#111214" stroke-width="1.5" stroke-linejoin="round"/>
</svg>
