<svg width="24" height="24" viewBox="0 0 24 24" fill="none" xmlns="http://www.w3.org/2000/svg">
<path d="M9.5808 6.84344C10.6616 5.04759 11.2019 4.14967 12 4.14967C12.7981 4.14967 13.3385 5.04759 14.4193 6.84344L14.6361 7.20376C14.9403 7.70917 15.0923 7.96188 15.3243 8.13041C15.5563 8.29893 15.8436 8.36548 16.4183 8.49857L16.828 8.59346C18.8699 9.06637 19.8908 9.30283 20.1375 10.0619C20.3841 10.8209 19.6971 11.6123 18.3231 13.1951L18.0474 13.5127C17.6608 13.9581 17.4674 14.1809 17.3788 14.4535C17.2902 14.7262 17.3157 15.0201 17.3667 15.6077L17.4031 16.0267C17.5843 18.1148 17.6749 19.1589 17.0292 19.628C16.3836 20.0971 15.4186 19.6883 13.4887 18.8707L13.1015 18.7066C12.5583 18.4765 12.2867 18.3615 12 18.3615C11.7133 18.3615 11.4417 18.4765 10.8986 18.7066L10.5114 18.8707C8.58145 19.6883 7.61649 20.0971 6.97082 19.628C6.32515 19.1589 6.41576 18.1148 6.59698 16.0267L6.63334 15.6077C6.68435 15.0201 6.70985 14.7262 6.62125 14.4535C6.53265 14.1809 6.33931 13.9581 5.95262 13.5127L5.67694 13.1951C4.30296 11.6123 3.61597 10.8209 3.8626 10.0619C4.10922 9.30283 5.13018 9.06637 7.1721 8.59346L7.58181 8.49857C8.15647 8.36548 8.4438 8.29893 8.67576 8.13041C8.90772 7.96188 9.0598 7.70917 9.36396 7.20376L9.5808 6.84344Z" stroke="#111214" stroke-width="1.5" stroke-linejoin="round"/>
</svg>
