<svg width="24" height="24" viewBox="0 0 24 24" fill="none" xmlns="http://www.w3.org/2000/svg">
<path d="M5.78516 9.84056C5.78516 10.8771 7.4481 11.7175 9.49944 11.7175V9.84056C9.49944 8.91739 9.49944 8.45581 9.13035 8.1742C8.76126 7.8926 8.39537 7.99793 7.66358 8.20858C6.54165 8.53155 5.78516 9.14141 5.78516 9.84056Z" stroke="#2471FF" stroke-width="1.3" stroke-linejoin="round"/>
<path d="M16 8.46729C16 10.2622 13.0899 11.7173 9.5 11.7173C5.91015 11.7173 3 10.2622 3 8.46729C3 6.67236 5.91015 5.21729 9.5 5.21729C13.0899 5.21729 16 6.67236 16 8.46729Z" stroke="#2471FF" stroke-width="1.3"/>
<path d="M3 8.9314V15.1219C3 16.8313 5.91015 18.2171 9.5 18.2171H19.7143C20.5897 18.2171 21.0275 18.2171 21.2995 17.9451C21.5714 17.6732 21.5714 17.2354 21.5714 16.36V13.5743C21.5714 12.6988 21.5714 12.2611 21.2995 11.9891C21.0275 11.7171 20.5897 11.7171 19.7143 11.7171H9.5" stroke="#2471FF" stroke-width="1.3"/>
<path d="M17.8577 18.2172V16.36M14.1434 18.2172V16.36M10.4291 18.2172V16.36M6.71484 17.7529V15.8958" stroke="#2471FF" stroke-width="1.3" stroke-linecap="round" stroke-linejoin="round"/>
</svg>
