<svg width="24" height="24" viewBox="0 0 24 24" fill="none" xmlns="http://www.w3.org/2000/svg">
<path d="M20.9775 14.0709C21.0011 14.1665 21.0055 14.2659 20.9907 14.3633C20.9758 14.4607 20.9419 14.5541 20.8909 14.6384C20.8398 14.7227 20.7727 14.7961 20.6933 14.8544C20.6139 14.9127 20.5238 14.9549 20.4282 14.9784L18.1182 15.5409L18.7238 17.8012C18.7493 17.8963 18.7558 17.9956 18.743 18.0933C18.7301 18.191 18.6981 18.2852 18.6488 18.3705C18.5996 18.4558 18.534 18.5306 18.4558 18.5906C18.3776 18.6505 18.2884 18.6945 18.1932 18.7199C18.13 18.7381 18.0648 18.7482 17.9991 18.7499C17.8341 18.7498 17.6738 18.6952 17.5429 18.5947C17.4121 18.4942 17.3181 18.3534 17.2754 18.194L16.5516 15.494L12.7491 13.2993V17.6896L14.7797 19.7193C14.8494 19.789 14.9047 19.8717 14.9424 19.9628C14.9801 20.0538 14.9995 20.1514 14.9995 20.2499C14.9995 20.3485 14.9801 20.4461 14.9424 20.5371C14.9047 20.6281 14.8494 20.7109 14.7797 20.7806C14.7101 20.8502 14.6273 20.9055 14.5363 20.9432C14.4452 20.9809 14.3477 21.0003 14.2491 21.0003C14.1506 21.0003 14.053 20.9809 13.9619 20.9432C13.8709 20.9055 13.7882 20.8502 13.7185 20.7806L11.9991 19.0602L10.2797 20.7806C10.2101 20.8502 10.1273 20.9055 10.0363 20.9432C9.94524 20.9809 9.84766 21.0003 9.74911 21.0003C9.65056 21.0003 9.55298 20.9809 9.46194 20.9432C9.37089 20.9055 9.28817 20.8502 9.21848 20.7806C9.1488 20.7109 9.09353 20.6281 9.05581 20.5371C9.0181 20.4461 8.99869 20.3485 8.99869 20.2499C8.99869 20.1514 9.0181 20.0538 9.05581 19.9628C9.09353 19.8717 9.1488 19.789 9.21848 19.7193L11.2491 17.6896V13.2993L7.44755 15.494L6.7238 18.194C6.68107 18.3535 6.58687 18.4945 6.45584 18.595C6.32481 18.6955 6.16426 18.75 5.99911 18.7499C5.9333 18.7498 5.86777 18.7413 5.80411 18.7246C5.70893 18.6992 5.61969 18.6552 5.54151 18.5952C5.46332 18.5353 5.39772 18.4605 5.34844 18.3752C5.29916 18.2899 5.26718 18.1957 5.25432 18.098C5.24146 18.0003 5.24797 17.901 5.27348 17.8059L5.87911 15.5456L3.56911 14.9831C3.37592 14.9356 3.2095 14.8133 3.10647 14.6431C3.00344 14.4729 2.97224 14.2687 3.01973 14.0756C3.06723 13.8824 3.18952 13.7159 3.35971 13.6129C3.52989 13.5099 3.73404 13.4787 3.92723 13.5262L6.68817 14.204L10.4991 11.9999L6.68911 9.80055L3.92817 10.4784C3.86959 10.4929 3.80946 10.5001 3.74911 10.4999C3.56572 10.5001 3.38865 10.433 3.25136 10.3114C3.11407 10.1898 3.02608 10.0222 3.00403 9.84011C2.98198 9.65805 3.0274 9.47423 3.13169 9.32339C3.23599 9.17255 3.39193 9.06515 3.57005 9.02149L5.88005 8.45899L5.27442 6.19399C5.22295 6.00179 5.24994 5.79702 5.34946 5.62472C5.44897 5.45242 5.61285 5.32671 5.80505 5.27524C5.99725 5.22377 6.20202 5.25076 6.37432 5.35027C6.54662 5.44979 6.67233 5.61367 6.7238 5.80587L7.44755 8.50587L11.2491 10.7006V6.31024L9.21848 4.28055C9.07775 4.13982 8.99869 3.94895 8.99869 3.74993C8.99869 3.65138 9.0181 3.5538 9.05581 3.46276C9.09353 3.37171 9.1488 3.28899 9.21848 3.2193C9.28817 3.14962 9.37089 3.09435 9.46194 3.05663C9.55298 3.01892 9.65056 2.99951 9.74911 2.99951C9.94813 2.99951 10.139 3.07857 10.2797 3.2193L11.9991 4.93962L13.7185 3.2193C13.8592 3.07857 14.0501 2.99951 14.2491 2.99951C14.4481 2.99951 14.639 3.07857 14.7797 3.2193C14.9205 3.36003 14.9995 3.55091 14.9995 3.74993C14.9995 3.94895 14.9205 4.13982 14.7797 4.28055L12.7491 6.31024V10.7006L16.5507 8.50587L17.2744 5.80587C17.3259 5.61367 17.4516 5.44979 17.6239 5.35027C17.7962 5.25076 18.001 5.22377 18.1932 5.27524C18.3854 5.32671 18.5493 5.45242 18.6488 5.62472C18.7483 5.79702 18.7753 6.00179 18.7238 6.19399L18.1182 8.4543L20.4282 9.0168C20.6113 9.0559 20.7731 9.16206 20.8819 9.31441C20.9907 9.46677 21.0386 9.6543 21.0161 9.84016C20.9937 10.026 20.9025 10.1968 20.7606 10.3189C20.6187 10.4409 20.4362 10.5055 20.2491 10.4999C20.1888 10.5001 20.1286 10.4929 20.07 10.4784L17.3091 9.80055L13.4991 11.9999L17.3091 14.1993L20.07 13.5215C20.1657 13.498 20.2651 13.4935 20.3624 13.5084C20.4598 13.5233 20.5533 13.5572 20.6376 13.6082C20.7219 13.6592 20.7953 13.7263 20.8536 13.8057C20.9119 13.8851 20.954 13.9752 20.9775 14.0709Z" fill="white"/>
</svg>
