<svg width="24" height="24" viewBox="0 0 24 24" fill="none" xmlns="http://www.w3.org/2000/svg">
<path d="M12.1988 3.5979L12.4004 2.87548H12.4004L12.1988 3.5979ZM14.1363 4.13835L14.3378 3.41593V3.41593L14.1363 4.13835ZM14.9725 4.69355L14.3899 5.16584L14.3899 5.16584L14.9725 4.69355ZM19.6413 11.9076L18.9587 12.2183L19.6413 11.9076ZM9.93653 4.78583L9.38493 4.27765L9.38493 4.27765L9.93653 4.78583ZM11.7531 7.37587L11.6309 6.63588L11.7531 7.37587ZM14.0699 8.44618L14.6648 7.98946L14.6648 7.98946L14.0699 8.44618ZM14.8637 11.3499L14.1182 11.4324V11.4324L14.8637 11.3499ZM15.4733 12.9205L15.0522 13.5412C15.3674 13.755 15.7929 13.6986 16.0415 13.4101C16.2901 13.1215 16.283 12.6925 16.0249 12.4123L15.4733 12.9205ZM8.99969 13.3683C8.74298 13.6933 8.79841 14.165 9.12349 14.4217C9.44857 14.6784 9.9202 14.623 10.1769 14.2979L9.58829 13.8331L8.99969 13.3683ZM9.0957 6.26213L8.35685 6.39097L9.0957 6.26213ZM20.5992 16.1961L21.2958 16.474V16.474L20.5992 16.1961ZM17.1559 18.3406L17.3904 19.053L17.1559 18.3406ZM13.0359 7.28313L13.3214 6.58961L13.3214 6.58961L13.0359 7.28313ZM11.2041 18.4653L11.7426 18.9874L11.7426 18.9874L11.2041 18.4653ZM4.544 18.3959L5.09568 17.8876L5.08735 17.8789L4.544 18.3959ZM11.3462 18.2666L11.6193 17.5681C11.277 17.4343 10.8881 17.5682 10.7009 17.8845L11.3462 18.2666ZM11.3184 18.3137L10.673 17.9316L10.673 17.9316L11.3184 18.3137ZM11.6717 12.3195L11.9009 13.0337L11.6717 12.3195ZM3.5293 15.5029L2.7793 15.5029L3.5293 15.5029ZM4.70833 12.2494L5.20837 12.8084L4.70833 12.2494ZM4.36668 12.544L3.8447 12.0054L4.36668 12.544ZM12.1988 3.5979L11.9973 4.32032L13.9348 4.86077L14.1363 4.13835L14.3378 3.41593L12.4004 2.87548L12.1988 3.5979ZM14.9725 4.69355L14.3899 5.16584C16.4851 7.75042 17.8222 9.72141 18.9587 12.2183L19.6413 11.9076L20.3239 11.5969C19.1157 8.94232 17.695 6.86097 15.5552 4.22126L14.9725 4.69355ZM14.8637 11.3499L14.1182 11.4324C14.1893 12.0746 14.3984 12.8607 14.9217 13.4287L15.4733 12.9205L16.0249 12.4123C15.8164 12.1861 15.6653 11.7747 15.6091 11.2673L14.8637 11.3499ZM14.0699 8.44618L13.475 8.9029C13.635 9.11129 13.7441 9.25355 13.8202 9.3592C13.8576 9.41112 13.8803 9.44512 13.8938 9.46689C13.9087 9.49098 13.9025 9.48457 13.8917 9.45735L14.5887 9.18041L15.2857 8.90347C15.2233 8.74643 15.1197 8.5969 15.0376 8.48286C14.9447 8.35387 14.8185 8.18968 14.6648 7.98946L14.0699 8.44618ZM14.8637 11.3499L15.6091 11.2673C15.5338 10.5868 15.4765 10.0692 15.432 9.70711C15.4098 9.52657 15.3898 9.37678 15.3715 9.26117C15.3584 9.17837 15.3342 9.0257 15.2857 8.90347L14.5887 9.18041L13.8917 9.45735C13.8672 9.39578 13.8706 9.37394 13.89 9.49595C13.9041 9.58514 13.9215 9.71412 13.9432 9.89011C13.9863 10.241 14.0424 10.7475 14.1182 11.4324L14.8637 11.3499ZM9.93653 4.78583L9.38493 4.27765C9.09609 4.59117 8.80915 4.89845 8.62097 5.19505C8.40569 5.53436 8.27543 5.92404 8.35685 6.39097L9.0957 6.26213L9.83455 6.13329C9.83333 6.1263 9.81566 6.11196 9.88755 5.99865C9.98653 5.84264 10.1613 5.64873 10.4881 5.294L9.93653 4.78583ZM19.6413 11.9076L18.9587 12.2183C19.443 13.2825 19.7664 13.9987 19.9256 14.5913C20.0736 15.1421 20.0608 15.5218 19.9026 15.9181L20.5992 16.1961L21.2958 16.474C21.602 15.7067 21.5843 14.9838 21.3743 14.2021C21.1755 13.4621 20.7877 12.6159 20.3239 11.5969L19.6413 11.9076ZM17.1559 18.3406L17.3904 19.053C18.3564 18.7349 19.1817 18.4665 19.8132 18.1147C20.4933 17.7358 20.9899 17.2407 21.2958 16.474L20.5992 16.1961L19.9026 15.9181C19.7442 16.3151 19.5121 16.5654 19.0832 16.8043C18.6056 17.0704 17.9413 17.2924 16.9213 17.6282L17.1559 18.3406ZM11.7531 7.37587L11.8753 8.11585C12.2457 8.0547 12.4832 8.01594 12.6553 8.00001C12.8456 7.9824 12.8279 8.00857 12.7503 7.97664L13.0359 7.28313L13.3214 6.58961C13.0375 6.47271 12.7372 6.48601 12.5171 6.5064C12.2788 6.52846 11.9781 6.57856 11.6309 6.63588L11.7531 7.37587ZM11.2041 18.4653L10.6656 17.9432C9.98328 18.647 8.94472 19.0245 7.86523 19.0145C6.78591 19.0045 5.75923 18.6081 5.09561 17.8877L4.544 18.3959L3.99239 18.904C4.98861 19.9854 6.44102 20.5014 7.85131 20.5145C9.26144 20.5275 10.723 20.0389 11.7426 18.9874L11.2041 18.4653ZM17.1559 18.3406L16.9213 17.6282C15.0545 18.2429 13.4844 18.2973 11.6193 17.5681L11.3462 18.2666L11.0731 18.9651C13.3138 19.8412 15.2479 19.7584 17.3904 19.053L17.1559 18.3406ZM11.3184 18.3137L11.9638 18.6958L11.9916 18.6487L11.3462 18.2666L10.7009 17.8845L10.673 17.9316L11.3184 18.3137ZM11.2041 18.4653L11.7426 18.9874C11.8341 18.8929 11.9065 18.7926 11.9638 18.6958L11.3184 18.3137L10.673 17.9316C10.6656 17.9441 10.6624 17.9466 10.6656 17.9432L11.2041 18.4653ZM15.4733 12.9205L15.8944 12.2999C15.0152 11.7034 13.2604 11.0219 11.4425 11.6054L11.6717 12.3195L11.9009 13.0337C13.1337 12.638 14.4068 13.1033 15.0522 13.5412L15.4733 12.9205ZM11.6717 12.3195L11.4425 11.6054C10.5748 11.8839 9.73222 12.4406 8.99969 13.3683L9.58829 13.8331L10.1769 14.2979C10.7355 13.5905 11.3332 13.2159 11.9009 13.0337L11.6717 12.3195ZM11.6717 12.3195L12.1863 11.7739C11.1317 10.7792 9.64944 10.3087 8.21344 10.2957C6.77732 10.2827 5.28618 10.7262 4.20829 11.6905L4.70833 12.2494L5.20837 12.8084C5.95092 12.1442 7.05342 11.7852 8.19985 11.7956C9.3464 11.806 10.4356 12.1847 11.1571 12.8652L11.6717 12.3195ZM13.0359 7.28313L12.7503 7.97664C12.7765 7.98743 12.8614 8.04384 13.0131 8.24461C13.0824 8.33633 13.1499 8.43606 13.2274 8.55104C13.2998 8.6584 13.3862 8.78713 13.475 8.90291L14.0699 8.44618L14.6648 7.98946C14.6096 7.91755 14.5503 7.82993 14.4712 7.71263C14.3973 7.60295 14.3076 7.4697 14.21 7.34046C14.0278 7.09931 13.7398 6.76187 13.3214 6.58961L13.0359 7.28313ZM14.1363 4.13835L13.9348 4.86077C14.0653 4.89718 14.1331 4.91667 14.1811 4.93347C14.2206 4.94729 14.2162 4.94913 14.1998 4.93825C14.1842 4.9279 14.1859 4.92457 14.2176 4.95919C14.2546 4.99963 14.3021 5.05754 14.3899 5.16584L14.9725 4.69355L15.5552 4.22126C15.4167 4.05045 15.2529 3.83709 15.0301 3.68901C14.8035 3.53842 14.5439 3.47342 14.3378 3.41593L14.1363 4.13835ZM12.1988 3.5979L12.4004 2.87548C11.6183 2.65731 10.9885 2.83056 10.475 3.19392C10.0432 3.49941 9.65618 3.98323 9.38493 4.27765L9.93653 4.78583L10.4881 5.294C10.8837 4.8646 11.0817 4.6021 11.3413 4.41841C11.5192 4.29259 11.6872 4.23379 11.9973 4.32032L12.1988 3.5979ZM9.0957 6.26213L8.35685 6.39097C8.52052 7.32956 9.35726 7.77119 9.97003 7.96178C10.622 8.16455 11.3605 8.20084 11.8753 8.11585L11.7531 7.37587L11.6309 6.63588C11.3525 6.68185 10.8501 6.66463 10.4155 6.52946C9.94178 6.38212 9.84643 6.2014 9.83455 6.13329L9.0957 6.26213ZM4.36668 12.544L3.8447 12.0054C3.37404 12.4616 2.7793 13.4576 2.7793 15.5029L3.5293 15.5029H4.2793C4.2793 13.7578 4.77758 13.1902 4.88866 13.0825L4.36668 12.544ZM3.5293 15.5029L2.7793 15.5029C2.7793 16.5583 3.07295 17.3984 3.36922 17.9764C3.51724 18.2652 3.6667 18.4903 3.78263 18.6469C3.8407 18.7253 3.89067 18.7871 3.92832 18.8315C3.94716 18.8537 3.96295 18.8716 3.97516 18.8852C3.98128 18.892 3.9865 18.8977 3.99077 18.9023C3.9929 18.9046 3.9948 18.9066 3.99645 18.9084C3.99727 18.9093 3.99804 18.9101 3.99874 18.9108C3.99909 18.9112 3.99943 18.9116 3.99975 18.9119C3.99991 18.9121 4.00013 18.9123 4.00021 18.9124C4.00044 18.9126 4.00066 18.9128 4.544 18.3959C5.08735 17.8789 5.08756 17.8791 5.08777 17.8793C5.08783 17.8794 5.08804 17.8796 5.08817 17.8797C5.08842 17.88 5.08867 17.8803 5.0889 17.8805C5.08935 17.881 5.08975 17.8814 5.09009 17.8818C5.09076 17.8825 5.0912 17.883 5.09142 17.8832C5.09185 17.8837 5.09137 17.8832 5.09005 17.8817C5.0874 17.8787 5.08139 17.872 5.07248 17.8615C5.05464 17.8404 5.02534 17.8046 4.98828 17.7545C4.91396 17.6541 4.80973 17.4984 4.70408 17.2922C4.493 16.8804 4.2793 16.274 4.2793 15.5029H3.5293ZM4.70833 12.2494L4.20829 11.6905C4.16598 11.7283 4.1233 11.7629 4.05723 11.8177C3.99756 11.8672 3.92091 11.9315 3.8447 12.0054L4.36668 12.544L4.88866 13.0825C4.92016 13.052 4.95844 13.019 5.01471 12.9724C5.06459 12.931 5.13888 12.8706 5.20837 12.8084L4.70833 12.2494Z" fill="#111214"/>
</svg>
