<svg width="70" height="70" viewBox="0 0 70 70" fill="none" xmlns="http://www.w3.org/2000/svg">
<path d="M0 24C0 10.7452 10.7452 0 24 0H46C59.2548 0 70 10.7452 70 24V46C70 59.2548 59.2548 70 46 70H24C10.7452 70 0 59.2548 0 46V24Z" fill="#F7F7F7"/>
<path d="M27.3334 62C30.0335 62 32.2222 59.78 32.2222 57.0415V48.4768C32.2222 48.4768 32.2223 46.6737 34 46.6737V7.00557C34 7.00557 27.1758 6.55478 24.6664 13.7672C22.157 20.9796 28.2219 25.0365 28.2219 25.0365H20.778C20.2257 25.0365 19.778 24.5888 19.778 24.0365V21.1765C19.778 21.1765 19.8892 16 15 16C10.1108 16 10.0004 21.1765 10.0004 21.1765V26.6142C10.0004 26.6142 9.91605 30.6948 12.2222 32.6997C14.5283 34.7046 18.4443 34.5028 18.4443 34.5028H19.778C19.778 34.5028 17.1199 39.496 18.0003 42.6167C18.746 45.2604 22.4446 48.026 22.4446 48.026V57.0415C22.4446 59.78 24.6334 62 27.3334 62Z" fill="#FF6B16"/>
<path d="M41.9999 62C39.2999 62 37.7776 59.78 37.7776 57.0415V48.4768C37.7776 48.4768 37.7776 46.6737 35.9999 46.6737V7.00557C35.9999 7.00557 42.824 6.55478 45.3334 13.7672C47.8428 20.9796 41.7779 25.0365 41.7779 25.0365H49.2219C49.7741 25.0365 50.2219 24.5888 50.2219 24.0365V21.1765C50.2219 21.1765 49.6108 16 54.5 16C59.3892 16 58.9995 21.1765 58.9995 21.1765V25.6142C58.9995 25.6142 59.0838 29.6948 56.7777 31.6997C54.4715 33.7046 52.4999 33.5028 52.4999 33.5028H49.2219H48.424C47.3919 33.5028 46.5552 34.3394 46.5552 35.3715V48.026V57.0415C46.5552 59.78 44.6999 62 41.9999 62Z" fill="#2471FF"/>
</svg>
