<svg width="34" height="34" viewBox="0 0 34 34" fill="none" xmlns="http://www.w3.org/2000/svg">
<path d="M13.5728 9.69489C15.1038 7.15077 15.8694 5.87871 17 5.87871C18.1306 5.87871 18.8962 7.15077 20.4272 9.69489L20.7344 10.2053C21.1653 10.9213 21.3808 11.2793 21.7094 11.5181C22.038 11.7568 22.445 11.8511 23.2592 12.0397L23.8396 12.1741C26.7323 12.844 28.1786 13.179 28.528 14.2543C28.8774 15.3296 27.9042 16.4508 25.9577 18.6931L25.5672 19.143C25.0194 19.774 24.7455 20.0896 24.6199 20.4759C24.4944 20.8622 24.5306 21.2784 24.6028 22.111L24.6543 22.7045C24.911 25.6627 25.0394 27.1418 24.1247 27.8063C23.21 28.4709 21.843 27.8917 19.1089 26.7335L18.5604 26.5011C17.7909 26.1751 17.4062 26.0121 17 26.0121C16.5938 26.0121 16.2091 26.1751 15.4396 26.5011L14.8911 26.7335C12.157 27.8917 10.79 28.4709 9.87529 27.8063C8.96059 27.1418 9.08896 25.6627 9.34569 22.7045L9.3972 22.111C9.46945 21.2784 9.50558 20.8622 9.38006 20.4759C9.25454 20.0896 8.98064 19.774 8.43284 19.143L8.04229 18.6931C6.09582 16.4508 5.12259 15.3296 5.47197 14.2543C5.82135 13.179 7.26772 12.844 10.1604 12.1741L10.7409 12.0397C11.555 11.8511 11.962 11.7568 12.2906 11.5181C12.6192 11.2793 12.8347 10.9213 13.2656 10.2053L13.5728 9.69489Z" stroke="black" stroke-width="2" stroke-linejoin="round"/>
</svg>
