<svg width="76" height="76" viewBox="0 0 76 76" fill="none" xmlns="http://www.w3.org/2000/svg">
<path d="M0 24C0 10.7452 10.7452 0 24 0H52C65.2548 0 76 10.7452 76 24V52C76 65.2548 65.2548 76 52 76H24C10.7452 76 0 65.2548 0 52V24Z" fill="#FF6B16"/>
<path d="M14.3154 66L15.6684 63.613C15.8444 63.2977 16.0461 63.0667 16.2734 62.92C16.5081 62.7733 16.7794 62.7 17.0874 62.7H17.4614L17.4504 62.865C16.5777 62.865 15.8994 62.6633 15.4154 62.26C14.9387 61.8493 14.7004 61.281 14.7004 60.555C14.7004 59.8217 14.9351 59.2533 15.4044 58.85C15.8811 58.4467 16.5557 58.245 17.4284 58.245H20.8934V66H19.4854V62.898H18.4514C18.1581 62.898 17.9197 62.942 17.7364 63.03C17.5531 63.118 17.3917 63.2867 17.2524 63.536L15.8664 66H14.3154ZM17.6594 61.864H19.4854V59.345H17.6594C16.5961 59.345 16.0644 59.763 16.0644 60.599C16.0644 61.4423 16.5961 61.864 17.6594 61.864ZM25.3208 66V60.445H28.2798C28.9765 60.445 29.4862 60.5733 29.8088 60.83C30.1315 61.0793 30.2928 61.435 30.2928 61.897C30.2928 62.249 30.1755 62.5423 29.9408 62.777C29.7062 63.0117 29.3945 63.1583 29.0058 63.217V63.063C29.4825 63.0923 29.8492 63.2317 30.1058 63.481C30.3625 63.7303 30.4908 64.053 30.4908 64.449C30.4908 64.9257 30.3075 65.3033 29.9408 65.582C29.5742 65.8607 29.0535 66 28.3788 66H25.3208ZM26.5968 65.153H28.2358C28.5585 65.153 28.8042 65.087 28.9728 64.955C29.1488 64.823 29.2368 64.6287 29.2368 64.372C29.2368 64.1153 29.1488 63.921 28.9728 63.789C28.8042 63.657 28.5585 63.591 28.2358 63.591H26.5968V65.153ZM26.5968 62.744H28.1148C28.4082 62.744 28.6355 62.6817 28.7968 62.557C28.9582 62.425 29.0388 62.2417 29.0388 62.007C29.0388 61.7723 28.9582 61.5927 28.7968 61.468C28.6355 61.3433 28.4082 61.281 28.1148 61.281H26.5968V62.744ZM33.9945 67.43V64.955H34.6325C34.8525 64.6103 35.0102 64.207 35.1055 63.745C35.2082 63.2757 35.2595 62.7037 35.2595 62.029V60.445H39.5385V64.955H40.4405V67.43H39.2745V66H35.1605V67.43H33.9945ZM35.8645 64.966H38.2515V61.479H36.4255V62.337C36.4255 62.8283 36.3778 63.3087 36.2825 63.778C36.1872 64.2473 36.0478 64.6433 35.8645 64.966ZM44.0684 66.11C43.1371 66.11 42.4074 65.8533 41.8794 65.34C41.3514 64.8267 41.0874 64.1227 41.0874 63.228C41.0874 62.6487 41.2011 62.1427 41.4284 61.71C41.6558 61.2773 41.9711 60.94 42.3744 60.698C42.7851 60.456 43.2618 60.335 43.8044 60.335C44.3398 60.335 44.7871 60.4487 45.1464 60.676C45.5058 60.9033 45.7771 61.2223 45.9604 61.633C46.1511 62.0437 46.2464 62.524 46.2464 63.074V63.437H42.1984V62.711H45.2674L45.0804 62.865C45.0804 62.3517 44.9704 61.9593 44.7504 61.688C44.5378 61.4167 44.2261 61.281 43.8154 61.281C43.3608 61.281 43.0088 61.4423 42.7594 61.765C42.5174 62.0877 42.3964 62.5387 42.3964 63.118V63.261C42.3964 63.8623 42.5431 64.3133 42.8364 64.614C43.1371 64.9073 43.5588 65.054 44.1014 65.054C44.4168 65.054 44.7101 65.0137 44.9814 64.933C45.2601 64.845 45.5241 64.7057 45.7734 64.515L46.1804 65.439C45.9164 65.6517 45.6011 65.8167 45.2344 65.934C44.8678 66.0513 44.4791 66.11 44.0684 66.11ZM47.2642 66.154L46.8352 65.076C47.0772 64.988 47.2789 64.8743 47.4402 64.735C47.6089 64.5883 47.7409 64.405 47.8362 64.185C47.9389 63.9577 48.0122 63.679 48.0562 63.349C48.1002 63.0117 48.1222 62.612 48.1222 62.15V60.445H52.5442V66H51.1802V61.501H49.3762V62.194C49.3762 62.9933 49.3029 63.6643 49.1562 64.207C49.0095 64.7423 48.7822 65.1677 48.4742 65.483C48.1662 65.7983 47.7629 66.022 47.2642 66.154ZM56.7283 66.11C55.797 66.11 55.0673 65.8533 54.5393 65.34C54.0113 64.8267 53.7473 64.1227 53.7473 63.228C53.7473 62.6487 53.861 62.1427 54.0883 61.71C54.3156 61.2773 54.631 60.94 55.0343 60.698C55.445 60.456 55.9216 60.335 56.4643 60.335C56.9996 60.335 57.447 60.4487 57.8063 60.676C58.1656 60.9033 58.437 61.2223 58.6203 61.633C58.811 62.0437 58.9063 62.524 58.9063 63.074V63.437H54.8583V62.711H57.9273L57.7403 62.865C57.7403 62.3517 57.6303 61.9593 57.4103 61.688C57.1976 61.4167 56.886 61.281 56.4753 61.281C56.0206 61.281 55.6686 61.4423 55.4193 61.765C55.1773 62.0877 55.0563 62.5387 55.0563 63.118V63.261C55.0563 63.8623 55.203 64.3133 55.4963 64.614C55.797 64.9073 56.2186 65.054 56.7613 65.054C57.0766 65.054 57.37 65.0137 57.6413 64.933C57.92 64.845 58.184 64.7057 58.4333 64.515L58.8403 65.439C58.5763 65.6517 58.261 65.8167 57.8943 65.934C57.5276 66.0513 57.139 66.11 56.7283 66.11ZM60.2321 63.701L59.8031 58.245H61.4971L61.0681 63.701H60.2321ZM59.8801 66V64.471H61.4201V66H59.8801Z" fill="white"/>
<path d="M26.2887 25.1716C26.5906 24.437 27.4858 24.1575 28.152 24.5898L30.295 25.9802C32.0222 27.1009 34.295 26.8771 35.7705 25.4411C36.8481 24.3923 37.3169 22.8666 37.0142 21.3937L36.1284 17.0832C35.8561 15.7579 37.3407 14.7789 38.4515 15.5512L45.1106 20.1805C48.414 22.477 50.708 25.9557 51.5178 29.8965C52.0882 32.6724 52.0882 35.5352 51.5178 38.311L51.3515 39.1203C50.6746 42.4145 48.2799 45.091 45.081 46.1288L44.2236 46.4069C39.8533 47.8248 35.1467 47.8248 30.7765 46.4069L29.6474 46.0407C26.6164 45.0573 24.3474 42.5213 23.706 39.4001C22.9966 35.9479 23.3333 32.3625 24.673 29.1027L26.2887 25.1716Z" stroke="white" stroke-width="2.2" stroke-linejoin="round"/>
</svg>
