<svg width="34" height="34" viewBox="0 0 34 34" fill="none" xmlns="http://www.w3.org/2000/svg">
<path d="M17.2819 5.09701L17.5506 4.13378L17.5506 4.13378L17.2819 5.09701ZM20.0266 5.86266L20.2953 4.89943V4.89943L20.0266 5.86266ZM21.2113 6.64919L20.4344 7.2789V7.2789L21.2113 6.64919ZM27.8253 16.8691L26.9152 17.2833V17.2833L27.8253 16.8691ZM14.0769 6.77991L13.3414 6.10235V6.10235L14.0769 6.77991ZM16.6504 10.4491L16.4875 9.46249L16.6504 10.4491ZM19.9326 11.9654L20.7258 11.3565L20.7258 11.3565L19.9326 11.9654ZM21.057 16.079L20.0631 16.189V16.189L21.057 16.079ZM21.9207 18.3041L21.3593 19.1316C21.7795 19.4167 22.3467 19.3415 22.6782 18.9568C23.0097 18.5721 23.0002 18 22.6561 17.6265L21.9207 18.3041ZM12.7988 18.9771C12.4565 19.4105 12.5304 20.0394 12.9638 20.3817C13.3973 20.7239 14.0261 20.65 14.3684 20.2166L13.5836 19.5968L12.7988 18.9771ZM12.8857 8.87134L11.9006 9.04312V9.04312L12.8857 8.87134ZM29.1824 22.9445L30.1112 23.315L29.1824 22.9445ZM24.3043 25.9825L24.617 26.9324L24.3043 25.9825ZM18.4677 10.3178L18.8484 9.39307L18.8484 9.39306L18.4677 10.3178ZM15.8726 26.1591L16.5906 26.8552L16.5906 26.8552L15.8726 26.1591ZM6.4375 26.0608L7.17298 25.3832C7.16934 25.3793 7.16567 25.3754 7.16196 25.3715L6.4375 26.0608ZM16.074 25.8777L16.4381 24.9463C15.9817 24.7679 15.4632 24.9465 15.2135 25.3682L16.074 25.8777ZM16.0345 25.9444L15.174 25.4349L15.174 25.4349L16.0345 25.9444ZM16.535 17.4527L16.8407 18.4048L16.535 17.4527ZM5 21.9625H4H5ZM6.6703 17.3534L7.33702 18.0987L6.6703 17.3534ZM6.18629 17.7706L5.49032 17.0525L6.18629 17.7706ZM17.2819 5.09701L17.0132 6.06024L19.7579 6.82588L20.0266 5.86266L20.2953 4.89943L17.5506 4.13378L17.2819 5.09701ZM21.2113 6.64919L20.4344 7.2789C23.4044 10.9427 25.3022 13.7395 26.9152 17.2833L27.8253 16.8691L28.7355 16.4548C27.0269 12.7007 25.0176 9.75675 21.9881 6.01947L21.2113 6.64919ZM21.057 16.079L20.0631 16.189C20.1632 17.0931 20.457 18.1912 21.1852 18.9816L21.9207 18.3041L22.6561 17.6265C22.3477 17.2917 22.1312 16.6933 22.051 15.9689L21.057 16.079ZM19.9326 11.9654L19.1394 12.5744C19.3658 12.8692 19.521 13.0717 19.6295 13.2223C19.7523 13.3929 19.7551 13.4174 19.7381 13.3748L20.6675 13.0056L21.5968 12.6363C21.5116 12.4219 21.3691 12.2157 21.2527 12.0539C21.1218 11.8721 20.9438 11.6404 20.7258 11.3565L19.9326 11.9654ZM21.057 16.079L22.051 15.9689C21.9442 15.0047 21.8631 14.2719 21.8001 13.7593C21.7687 13.5038 21.7405 13.2924 21.7147 13.1298C21.6959 13.0108 21.6626 12.8018 21.5968 12.6363L20.6675 13.0056L19.7381 13.3748C19.7065 13.2953 19.7122 13.2716 19.7394 13.4428C19.7596 13.5703 19.7843 13.7538 19.815 14.0033C19.8762 14.5009 19.9557 15.2189 20.0631 16.189L21.057 16.079ZM14.0769 6.77991L13.3414 6.10235C12.9307 6.54822 12.5288 6.97881 12.266 7.39313C11.967 7.86439 11.7886 8.4008 11.9006 9.04312L12.8857 8.87134L13.8709 8.69955C13.8658 8.67049 13.8469 8.63453 13.9547 8.4646C14.0987 8.23773 14.351 7.9583 14.8124 7.45748L14.0769 6.77991ZM27.8253 16.8691L26.9152 17.2833C27.6005 18.7891 28.0613 19.8091 28.2885 20.6547C28.5007 21.4447 28.4838 21.9969 28.2536 22.5739L29.1824 22.9445L30.1112 23.315C30.5388 22.2434 30.5149 21.2336 30.22 20.1358C29.94 19.0937 29.3934 17.9003 28.7355 16.4548L27.8253 16.8691ZM24.3043 25.9825L24.617 26.9324C25.9878 26.481 27.1502 26.1027 28.0384 25.6079C28.9915 25.0769 29.684 24.3858 30.1112 23.315L29.1824 22.9445L28.2536 22.5739C28.023 23.1517 27.6832 23.5163 27.0651 23.8607C26.3821 24.2412 25.4343 24.5577 23.9916 25.0327L24.3043 25.9825ZM16.6504 10.4491L16.8133 11.4358C17.337 11.3493 17.6762 11.2939 17.9228 11.2711C18.1935 11.246 18.1817 11.2815 18.0869 11.2424L18.4677 10.3178L18.8484 9.39306C18.4612 9.23366 18.0491 9.25086 17.7384 9.27962C17.4036 9.31062 16.9803 9.38112 16.4875 9.46249L16.6504 10.4491ZM15.8726 26.1591L15.1547 25.4631C14.174 26.4746 12.685 27.014 11.142 26.9997C9.59916 26.9854 8.12696 26.4188 7.17298 25.3832L6.4375 26.0608L5.70202 26.7383C7.09947 28.2553 9.13931 28.9812 11.1234 28.9996C13.1073 29.0181 15.1603 28.3305 16.5906 26.8552L15.8726 26.1591ZM24.3043 25.9825L23.9916 25.0327C21.3354 25.9072 19.0959 25.9855 16.4381 24.9463L16.074 25.8777L15.7099 26.809C18.8685 28.044 21.5933 27.928 24.617 26.9324L24.3043 25.9825ZM16.0345 25.9444L16.895 26.4538L16.9345 26.3871L16.074 25.8777L15.2135 25.3682L15.174 25.4349L16.0345 25.9444ZM15.8726 26.1591L16.5906 26.8552C16.7163 26.7256 16.8159 26.5874 16.895 26.4538L16.0345 25.9444L15.174 25.4349C15.1615 25.4561 15.1541 25.4637 15.1547 25.4631L15.8726 26.1591ZM21.9207 18.3041L22.4821 17.4765C21.2463 16.6382 18.7804 15.6817 16.2294 16.5005L16.535 17.4527L16.8407 18.4048C18.6115 17.8365 20.4352 18.5047 21.3593 19.1316L21.9207 18.3041ZM16.535 17.4527L16.2294 16.5005C15.0128 16.891 13.8293 17.6721 12.7988 18.9771L13.5836 19.5968L14.3684 20.2166C15.167 19.2053 16.024 18.667 16.8407 18.4048L16.535 17.4527ZM16.535 17.4527L17.2212 16.7252C15.741 15.3292 13.6576 14.6663 11.6353 14.648C9.61286 14.6297 7.51661 15.2546 6.00357 16.6081L6.6703 17.3534L7.33702 18.0987C8.40293 17.1452 9.981 16.6331 11.6172 16.6479C13.2535 16.6628 14.813 17.2031 15.8489 18.1802L16.535 17.4527ZM18.4677 10.3178L18.0869 11.2424C18.1404 11.2645 18.2691 11.3561 18.4853 11.6422C18.5846 11.7737 18.6812 11.9164 18.7908 12.079C18.8936 12.2315 19.0149 12.4122 19.1394 12.5744L19.9326 11.9654L20.7258 11.3565C20.6461 11.2527 20.561 11.1269 20.4492 10.9611C20.3443 10.8055 20.2182 10.6182 20.0811 10.4366C19.8243 10.0967 19.4247 9.63037 18.8484 9.39307L18.4677 10.3178ZM20.0266 5.86266L19.7579 6.82588C19.9422 6.8773 20.0404 6.90548 20.1107 6.93008C20.1697 6.9507 20.1686 6.95538 20.1511 6.94379C20.1348 6.93291 20.141 6.93211 20.1879 6.98331C20.2418 7.04228 20.3105 7.12595 20.4344 7.2789L21.2113 6.64919L21.9881 6.01947C21.7896 5.77461 21.5641 5.48143 21.2582 5.27813C20.9473 5.0715 20.5907 4.98183 20.2953 4.89943L20.0266 5.86266ZM17.2819 5.09701L17.5506 4.13378C16.4622 3.8302 15.5893 4.07086 14.8758 4.57573C14.2713 5.00343 13.7309 5.67962 13.3414 6.10235L14.0769 6.77991L14.8124 7.45748C15.3676 6.85478 15.656 6.47369 16.031 6.20838C16.2969 6.02024 16.5541 5.93217 17.0132 6.06024L17.2819 5.09701ZM12.8857 8.87134L11.9006 9.04312C12.1261 10.3365 13.2806 10.9513 14.1429 11.2195C15.0574 11.5039 16.0938 11.5546 16.8133 11.4358L16.6504 10.4491L16.4875 9.46249C16.0832 9.52923 15.3616 9.50404 14.7369 9.30974C14.06 9.0992 13.894 8.83232 13.8709 8.69955L12.8857 8.87134ZM6.18629 17.7706L5.49032 17.0525C4.83854 17.6842 4 19.0775 4 21.9625H5H6C6 19.4778 6.70992 18.6557 6.88226 18.4887L6.18629 17.7706ZM5 21.9625H4C4 23.4458 4.41267 24.6262 4.82884 25.4381C5.03678 25.8438 5.24662 26.1597 5.40913 26.3792C5.49051 26.4892 5.56045 26.5755 5.61296 26.6375C5.63923 26.6685 5.66119 26.6934 5.6781 26.7122C5.68656 26.7216 5.69376 26.7295 5.69961 26.7358C5.70254 26.7389 5.70513 26.7417 5.70737 26.7441C5.70849 26.7453 5.70952 26.7464 5.71047 26.7474C5.71094 26.7479 5.71139 26.7484 5.71182 26.7488C5.71203 26.7491 5.71234 26.7494 5.71245 26.7495C5.71275 26.7498 5.71304 26.7501 6.4375 26.0608C7.16196 25.3715 7.16224 25.3718 7.16252 25.3721C7.16261 25.3722 7.16288 25.3724 7.16305 25.3726C7.16339 25.373 7.16371 25.3733 7.16401 25.3736C7.16461 25.3743 7.16512 25.3748 7.16555 25.3753C7.16641 25.3762 7.16694 25.3768 7.16714 25.377C7.16756 25.3774 7.16668 25.3765 7.16461 25.3742C7.16047 25.3696 7.15154 25.3595 7.13851 25.3442C7.1124 25.3134 7.07004 25.2615 7.01666 25.1894C6.90963 25.0448 6.7601 24.8213 6.60866 24.5258C6.30608 23.9355 6 23.0667 6 21.9625H5ZM6.6703 17.3534L6.00357 16.6081C5.94251 16.6627 5.88073 16.7128 5.7878 16.7899C5.7034 16.8599 5.59642 16.9497 5.49032 17.0525L6.18629 17.7706L6.88226 18.4887C6.92875 18.4436 6.98458 18.3956 7.06445 18.3294C7.13578 18.2703 7.23971 18.1857 7.33702 18.0987L6.6703 17.3534Z" fill="black"/>
</svg>
