<svg width="32" height="32" viewBox="0 0 32 32" fill="none" xmlns="http://www.w3.org/2000/svg">
<g clip-path="url(#clip0_29387_56287)">
<path d="M25.9999 0H6C2.68629 0 0 2.68629 0 6V25.9999C0 29.3137 2.68629 32 6 32H25.9999C29.3137 32 32 29.3137 32 25.9999V6C32 2.68629 29.3137 0 25.9999 0Z" fill="white"/>
<path d="M8.42188 10.1055V13.029H13.2544V20.2058C13.2544 23.3956 15.2174 24.0604 18.0871 24.0604C19.8988 24.0604 20.6543 23.7942 20.6543 23.7942V21.0033C20.6543 21.0033 20.201 21.1368 19.2956 21.1368C17.936 21.1368 17.4827 20.7381 17.4827 19.542V13.029H22.6174V10.1055H8.42188Z" fill="#111214"/>
</g>
<defs>
<clipPath id="clip0_29387_56287">
<rect width="32" height="32" rx="16" fill="white"/>
</clipPath>
</defs>
</svg>
