<svg width="24" height="24" viewBox="0 0 24 24" fill="none" xmlns="http://www.w3.org/2000/svg">
<path fill-rule="evenodd" clip-rule="evenodd" d="M11.2388 5.20816C10.971 4.93061 10.5368 4.93061 10.269 5.20816L4.20084 11.4975C4.07224 11.6307 4 11.8115 4 12C4 12.1885 4.07224 12.3693 4.20084 12.5025L10.269 18.7918C10.5368 19.0694 10.971 19.0694 11.2388 18.7918C11.5065 18.5143 11.5065 18.0643 11.2388 17.7868L6.34118 12.7107L19.3143 12.7107C19.693 12.7107 20 12.3925 20 12C20 11.6075 19.693 11.2893 19.3143 11.2893L6.34118 11.2893L11.2388 6.21325C11.5065 5.9357 11.5065 5.48571 11.2388 5.20816Z" fill="#111214"/>
</svg>
