<svg width="18" height="18" viewBox="0 0 18 18" fill="none" xmlns="http://www.w3.org/2000/svg">
<path d="M9.21683 10.2992V8.98777M9.21683 10.2992C7.93172 10.2992 6.64662 10.1536 5.36152 9.86225M9.21683 10.2992C10.5023 10.2992 11.7878 10.1537 13.0733 9.86225M5.36152 9.86225C4.37822 9.63934 3.39492 9.33115 2.41162 8.93769C2.0186 8.78042 1.82209 8.70179 1.68725 8.5217C1.46353 8.22288 1.50397 7.80677 1.50397 7.45086C1.50397 6.46562 1.50397 5.173 1.73597 4.91574C2.17518 4.42873 3.01364 4.877 3.50131 5.04089C7.31165 6.32145 11.122 6.32145 14.9323 5.04089C15.42 4.877 16.2585 4.42873 16.6977 4.91574C16.9297 5.173 16.9297 6.46562 16.9297 7.45086C16.9297 7.94495 16.9297 8.192 16.8248 8.3961C16.6636 8.70967 16.3232 8.81719 16.022 8.93769C15.0391 9.33101 14.0562 9.63936 13.0733 9.86225M5.36152 9.86225L5.3604 8.55053M13.0733 9.86225V8.55053" stroke="#FF6B16" stroke-linecap="round" stroke-linejoin="round"/>
<path d="M3.18715 1.65298C3.10266 1.39008 3.24729 1.10847 3.51019 1.02398C3.77309 0.93949 4.05471 1.08412 4.13919 1.34702L3.66317 1.5L3.18715 1.65298ZM3.54614 15.9C3.54614 16.1761 3.32228 16.4 3.04614 16.4C2.77 16.4 2.54614 16.1761 2.54614 15.9H3.04614H3.54614ZM14.2937 1.34702C14.3782 1.08412 14.6598 0.93949 14.9227 1.02398C15.1856 1.10847 15.3302 1.39008 15.2457 1.65298L14.7697 1.5L14.2937 1.34702ZM15.8867 15.9C15.8867 16.1761 15.6629 16.4 15.3867 16.4C15.1106 16.4 14.8867 16.1761 14.8867 15.9H15.3867H15.8867ZM3.65636 11.3626C3.73226 11.0971 4.00903 10.9434 4.27453 11.0193C4.54004 11.0952 4.69375 11.3719 4.61785 11.6374L4.1371 11.5L3.65636 11.3626ZM13.815 11.6374C13.7391 11.3719 13.8928 11.0952 14.1583 11.0193C14.4238 10.9434 14.7006 11.0971 14.7765 11.3626L14.2958 11.5L13.815 11.6374ZM14.396 5.20457C14.3704 5.47953 14.1269 5.68175 13.8519 5.65624C13.5769 5.63073 13.3747 5.38715 13.4002 5.11219L13.8981 5.15838L14.396 5.20457ZM5.03263 5.11219C5.05814 5.38715 4.85592 5.63073 4.58096 5.65624C4.306 5.68175 4.06242 5.47953 4.0369 5.20457L4.53477 5.15838L5.03263 5.11219ZM4.1371 11.5L4.61785 11.6374C4.49932 12.0521 4.36965 12.4232 4.24493 12.769C4.11869 13.1189 4.00126 13.433 3.89682 13.7572C3.69247 14.3914 3.54614 15.0404 3.54614 15.9H3.04614H2.54614C2.54614 14.9107 2.71768 14.156 2.94501 13.4505C3.0564 13.1048 3.18326 12.7651 3.30426 12.4297C3.42678 12.09 3.54728 11.7441 3.65636 11.3626L4.1371 11.5ZM14.2958 11.5L14.7765 11.3626C14.8856 11.7441 15.0061 12.09 15.1286 12.4297C15.2496 12.7651 15.3765 13.1048 15.4879 13.4505C15.7152 14.156 15.8867 14.9107 15.8867 15.9H15.3867H14.8867C14.8867 15.0404 14.7404 14.3914 14.536 13.7572C14.4316 13.433 14.3142 13.1189 14.1879 12.769C14.0632 12.4232 13.9335 12.0521 13.815 11.6374L14.2958 11.5ZM14.7697 1.5L15.2457 1.65298C14.9987 2.42153 14.5792 3.22923 14.396 5.20457L13.8981 5.15838L13.4002 5.11219C13.5966 2.99619 14.0698 2.04369 14.2937 1.34702L14.7697 1.5ZM3.66317 1.5L4.13919 1.34702C4.36308 2.04369 4.8363 2.99619 5.03263 5.11219L4.53477 5.15838L4.0369 5.20457C3.85363 3.22923 3.43414 2.42153 3.18715 1.65298L3.66317 1.5Z" fill="#FF6B16"/>
<path d="M14.6152 14.3008C11.0159 15.3674 7.41656 15.3674 3.81723 14.3008" stroke="#FF6B16" stroke-linecap="round" stroke-linejoin="round"/>
</svg>
